<svg width="500" height="500" viewBox="0 0 500 500" fill="none" xmlns="http://www.w3.org/2000/svg">
<path d="M340 0C396.005 0 424.008 6.56312e-05 445.399 10.8994C464.215 20.4867 479.513 35.7846 489.101 54.6006C500 75.9918 500 103.995 500 160V340C500 396.005 500 424.008 489.101 445.399C479.513 464.215 464.215 479.513 445.399 489.101C424.008 500 396.005 500 340 500H160C103.995 500 75.9918 500 54.6006 489.101C35.7846 479.513 20.4867 464.215 10.8994 445.399C6.56312e-05 424.008 0 396.005 0 340V160C0 103.995 6.56312e-05 75.9918 10.8994 54.6006C20.4867 35.7846 35.7846 20.4867 54.6006 10.8994C75.9918 6.56312e-05 103.995 0 160 0H340ZM250 414.25C240.749 414.25 233.25 421.749 233.25 431C233.25 440.251 240.749 447.75 250 447.75C259.251 447.75 266.75 440.251 266.75 431C266.75 421.749 259.251 414.25 250 414.25ZM250 278.75C249.31 278.75 248.75 279.31 248.75 280V407C248.75 407.69 249.31 408.25 250 408.25C250.69 408.25 251.25 407.69 251.25 407V280C251.25 279.31 250.69 278.75 250 278.75ZM250 96.25C249.31 96.25 248.75 96.8096 248.75 97.5V225.5C248.75 226.19 249.31 226.75 250 226.75C250.69 226.75 251.25 226.19 251.25 225.5V97.5C251.25 96.8096 250.69 96.25 250 96.25ZM250 56.75C240.749 56.75 233.25 64.2492 233.25 73.5C233.25 82.7508 240.749 90.25 250 90.25C259.251 90.25 266.75 82.7508 266.75 73.5C266.75 64.2492 259.251 56.75 250 56.75Z" fill="#0B0D12"/>
<path opacity="0.15" d="M250 378C320.692 378 378 320.692 378 250C378 179.308 320.692 122 250 122C179.308 122 122 179.308 122 250C122 320.692 179.308 378 250 378Z" fill="#7C6FE0"/>
<path opacity="0.15" d="M250 346C303.019 346 346 303.019 346 250C346 196.981 303.019 154 250 154C196.981 154 154 196.981 154 250C154 303.019 196.981 346 250 346Z" fill="#7C6FE0"/>
<path d="M250 314C285.346 314 314 285.346 314 250C314 214.654 285.346 186 250 186C214.654 186 186 214.654 186 250C186 285.346 214.654 314 250 314Z" fill="#7C6FE0" stroke="#7C6FE0" stroke-width="1.5"/>
</svg>
