<svg width="500" height="500" viewBox="0 0 500 500" fill="none" xmlns="http://www.w3.org/2000/svg">
<rect width="500" height="500" rx="100" fill="#F0EEF8"/>
<path d="M250 96V224" stroke="#2E3248" stroke-width="2.5" stroke-linecap="round"/>
<path d="M250 278V405" stroke="#2E3248" stroke-width="2.5" stroke-linecap="round"/>
<path d="M250 88.5C258.837 88.5 266 81.3366 266 72.5C266 63.6634 258.837 56.5 250 56.5C241.163 56.5 234 63.6634 234 72.5C234 81.3366 241.163 88.5 250 88.5Z" fill="#0B0D12" stroke="#2E3248" stroke-width="1.5"/>
<path d="M250 445C258.837 445 266 437.837 266 429C266 420.163 258.837 413 250 413C241.163 413 234 420.163 234 429C234 437.837 241.163 445 250 445Z" fill="#0B0D12" stroke="#2E3248" stroke-width="1.5"/>
<path opacity="0.15" d="M250 378C320.692 378 378 320.692 378 250C378 179.308 320.692 122 250 122C179.308 122 122 179.308 122 250C122 320.692 179.308 378 250 378Z" fill="#7C6FE0"/>
<path opacity="0.15" d="M250 346C303.019 346 346 303.019 346 250C346 196.981 303.019 154 250 154C196.981 154 154 196.981 154 250C154 303.019 196.981 346 250 346Z" fill="#7C6FE0"/>
<path d="M250 314C285.346 314 314 285.346 314 250C314 214.654 285.346 186 250 186C214.654 186 186 214.654 186 250C186 285.346 214.654 314 250 314Z" fill="#7C6FE0" stroke="#7C6FE0" stroke-width="1.5"/>
</svg>
